<?xml version="1.0" encoding="UTF-8" standalone="no"?>
<!-- Generator: Adobe Illustrator 16.0.0, SVG Export Plug-In . SVG Version: 6.00 Build 0)  -->

<svg
   xmlns:dc="http://purl.org/dc/elements/1.1/"
   xmlns:cc="http://creativecommons.org/ns#"
   xmlns:rdf="http://www.w3.org/1999/02/22-rdf-syntax-ns#"
   xmlns:svg="http://www.w3.org/2000/svg"
   xmlns="http://www.w3.org/2000/svg"
   xmlns:sodipodi="http://sodipodi.sourceforge.net/DTD/sodipodi-0.dtd"
   xmlns:inkscape="http://www.inkscape.org/namespaces/inkscape"
   version="1.1"
   x="0px"
   y="-10px"
   width="451px"
   height="483px"
   viewBox="0 0 451 443"
   enable-background="new 0 0 951 443"
   xml:space="preserve"
   id="svg388"
   sodipodi:docname="globes w_mercator projections.svg"
   inkscape:version="0.92.0 r15299"><title
     id="title396">globes w/ mercator projections</title><metadata
     id="metadata394"><rdf:RDF><cc:Work
         rdf:about=""><dc:format>image/svg+xml</dc:format><dc:type
           rdf:resource="http://purl.org/dc/dcmitype/StillImage" /><dc:title>globes w/ mercator projections</dc:title><dc:date>8/6/2017</dc:date><dc:creator><cc:Agent><dc:title>cactus cowboy</dc:title></cc:Agent></dc:creator></cc:Work></rdf:RDF></metadata><defs
     id="defs392" /><sodipodi:namedview
     pagecolor="#ffffff"
     bordercolor="#666666"
     borderopacity="1"
     objecttolerance="10"
     gridtolerance="10"
     guidetolerance="10"
     inkscape:pageopacity="0"
     inkscape:pageshadow="2"
     inkscape:window-width="1920"
     inkscape:window-height="1052"
     id="namedview390"
     showgrid="false"
     inkscape:zoom="1"
     inkscape:cx="475.5"
     inkscape:cy="221.5"
     inkscape:window-x="-9"
     inkscape:window-y="-9"
     inkscape:window-maximized="1"
     inkscape:current-layer="svg388" /><g
     id="g160"><polyline
       fill="#c9c9c927"
       stroke="none"
       stroke-width="1"
       stroke-linecap="round"
       stroke-linejoin="round"
       points="230.938,435.688    235.188,435.688 243.875,435.249 252.5,434.374 261.25,432.938 270,431.374 287.125,426.813 299.375,422.749 305.688,420.438    313.063,417.124 321.938,413.063 326.438,410.813 333.563,407.063 340.313,402.813 347.188,398.374 354.313,393.438    361.75,387.813 368.75,381.749 375.5,375.688 382.125,368.999 388.375,362.374 394.313,355.374 401.063,346.874 404.813,341.374    409.375,334.124 414.063,326.188 417.875,318.749 421.188,311.624 426.375,299.188 430.125,288.313 433.313,277.438    436.063,266.374 437.875,255.063 439.5,240.938 440.188,226.063 439.813,213.063 439,203.625 437.125,189.813 434.563,176.188    432.313,166.625 428.25,153.813 424.25,143.125 418.625,130.938 413.813,121.625 408.75,113.063 403.5,104.188 397.688,95.563    386.875,82.375 379.438,74.5 373.688,68.938 367.75,63.563 361.813,58.188 355.625,53.188 348,47.563 344.063,45.125    333.063,37.875 326.375,34.125 319.75,30.75 312.938,27.75 303.875,24.063 292.563,20.188 281.625,16.938 268.75,13.75    255.938,11.313 247.25,10.313 239.313,9.438 218.313,9.313  "
       id="polyline10" /><polyline
       fill="#c9c9c927"
       stroke="none"
       stroke-width="1"
       stroke-linecap="round"
       stroke-linejoin="round"
       points="218.313,9.313    205.875,10.063 196.938,11 188.125,12.25 179.313,13.813 170.563,15.875 161.938,18.125 153.625,20.938 142.688,24.75    136.563,27.188 130.625,29.813 124.875,32.813 116.125,37.438 110.438,40.938 104.75,44.625 96.625,50.438 85.75,59.25    76.688,67.625 68.063,76.625 58.563,86.438 49.125,99.25 40.688,112.438 33.438,125.25 27.438,137.875 23.563,147.813 20,158    17.375,167.875 15.25,177.625 12.75,192.688 12.063,199.5 11.25,208 10.938,215.813 10.813,225.999 11.25,236.313 12.063,244.188    12.938,250.313 15.25,264.313 19.5,280.624 21.875,288.563 27.938,304.063 32.688,314.624 39.063,326.374 46,338.188 52.5,347.188    62.813,360.374 74.188,372.563 80.313,378.313 88.438,385.499 95,390.624 101.813,395.624 108.563,400.249 115.688,404.688    122.813,408.938 130.313,412.749 139.375,416.938 143.375,418.688 151.438,422.124 162.313,425.874 173.375,429.063    184.563,431.688 195.938,433.563 207.375,434.938 218.938,435.688 230.938,435.688  "
       id="polyline12" /><polygon
       fill="#c9c9c927"
       stroke="#a2a2a287"
       stroke-width="1"
       stroke-linecap="round"
       stroke-linejoin="round"
       points="384.313,350.624    384.75,353.874 377,365.063 374.063,368.874 374.063,370.188 375.188,372.063 373.75,373.499 371.438,372.999 369.938,373.249    366.875,374.313 367.5,364.313 369.563,361.499 372.438,359.624 380.063,351.874 382.438,348.813  "
       id="polygon14" /><polygon
       fill="none"
       stroke="#a2a2a287"
       stroke-width="1"
       stroke-linecap="round"
       stroke-linejoin="round"
       points="337.438,186.813    341.563,189 342.188,190.875 339.25,192.125 339.313,196.688 342.75,196.438 345.75,198 347.188,199.813 350.563,201.188    353.063,203.625 356.188,204 360.688,209.375 361.438,211.188 359.938,213.063 354.75,217.688 349.875,218.938 344.625,212.25    344.313,210.5 342.75,209.75 338.75,206.125 334.813,205.25 330.813,200.625 330.125,197.625 330.688,194.688 331.688,193.938    332.063,190.438 335.5,187.5  "
       id="polygon16" /><polyline
       fill="none"
       stroke="#a2a2a287"
       stroke-width="1"
       stroke-linecap="round"
       stroke-linejoin="round"
       points="249.438,248.124    248.938,249.188 250,251.563 251.563,251.563 251,249.063 249.75,248.249  "
       id="polyline18" /><polygon
       fill="none"
       stroke="#a2a2a287"
       stroke-width="1"
       stroke-linecap="round"
       stroke-linejoin="round"
       points="256.563,262.938    257.813,263.063 259.25,264.563 262.375,265.249 265.625,265.124 265.375,262.938 265,261.688 258.063,262.063  "
       id="polygon20" /><polygon
       fill="none"
       stroke="#a2a2a287"
       stroke-width="1"
       stroke-linecap="round"
       stroke-linejoin="round"
       points="250.25,253.813    253.5,254.874 252.688,260.688 251.625,260.938 250,258.813 250,254.813  "
       id="polygon22" /><polygon
       fill="none"
       stroke="#a2a2a287"
       stroke-width="1"
       stroke-linecap="round"
       stroke-linejoin="round"
       points="209,203.813    210.563,206.25 207.375,213.313 205.375,213.75 201.75,214.063 200,213.063 200.313,211.313 202.813,210.5 202.813,207.875    204.438,204.75 207.938,203.625  "
       id="polygon24" /><polygon
       fill="none"
       stroke="#a2a2a287"
       stroke-width="1"
       stroke-linecap="round"
       stroke-linejoin="round"
       points="223.938,204.938    221.75,204 220.375,200.625 217.875,200.625 218.25,198.875 219.313,194.938 218.313,192.125 216.75,189 215.25,191.063    213.938,191.688 213.938,192.938 211.438,192.125 210.875,195.125 213,197.188 212.375,201.188 212.75,202.438 215.125,202.438    215.438,205.25 215.25,207.438 213.563,209.125 213.313,211.313 212.063,213.5 212.063,214.938 213.25,216.563 212.375,217.5    210.563,218.625 207.938,220.938 207.375,221.813 209.25,220.875 212.063,220.938 219.75,219.688 221.375,218.938 222.438,218.625    224.938,219.688 228.25,219.063 226.688,217.25 226.375,216.438 227.438,212.25 226.438,210.375 224.438,208.5  "
       id="polygon26" /><polygon
       fill="none"
       stroke="#a2a2a287"
       stroke-width="1"
       stroke-linecap="round"
       stroke-linejoin="round"
       points="266.875,104.938    269.313,105.563 270.375,106.813 271.188,111 272.875,114.313 274.5,115.25 274.5,117.5 275.313,118.75 277.313,119.875    278.813,118.5 281.5,119.75 281.5,121.25 279.625,121.875 277.75,123.5 274.813,124 272.813,120.813 272,118.5 269.688,117.5    266.875,110.188 266.125,107.375  "
       id="polygon28" /><polyline
       fill="none"
       stroke="#a2a2a287"
       stroke-width="1"
       stroke-linecap="round"
       stroke-linejoin="round"
       points="237.75,113.813    237.75,115.875 235.188,116.563 233.938,117.5 234.063,120.188 234.688,122.5 236.063,123.75 237.938,124.125 238.25,126.375    237.438,127.625 236.375,128.125 235.25,124.313 235.188,127.563 233.688,128.25 232.5,126.938 230.5,122.875 228.313,121.625    227.813,119.563 226.5,116.25 230.938,115.875 234.938,114.875 237.625,113.938  "
       id="polyline30" /><polyline
       fill="none"
       stroke="#a2a2a287"
       stroke-width="1"
       stroke-linecap="round"
       stroke-linejoin="round"
       points="255.563,77.938    253.938,79.25 256.438,80.813 256.625,79.813 260.938,81.625 262.813,79.75 264,77.938 264,76.125 262.375,75.125 261.563,75.438    260.188,76.75 256.938,79 255.563,78.063  "
       id="polyline32" /><polygon
       fill="none"
       stroke="#a2a2a287"
       stroke-width="1"
       stroke-linecap="round"
       stroke-linejoin="round"
       points="187.063,157.813    188.625,158.313 190.75,160.125 193.438,161.563 195.938,161.563 197.625,161.375 198.938,161 200.313,161.375 202.5,164.875    201.75,167 200,168.188 194.063,169.438 190.438,169.5 189.25,166.938 187.563,166.125 187.063,165.063 185.938,164.625    185.938,162.875 187.688,162.188 186.625,158.938  "
       id="polygon34" /><polygon
       fill="none"
       stroke="#a2a2a287"
       stroke-width="1"
       stroke-linecap="round"
       stroke-linejoin="round"
       points="211.625,115.25    210.438,115.5 208,117.188 207.75,121.25 207.375,125.563 205.813,126.188 205.5,132.125 204.313,134 201.75,132.25    200.938,132.875 199.438,136.625 200.375,142.25 198.25,144.625 197.375,145.5 195.938,146.063 188.625,149.25 184.438,149.688    183.938,149.688 178.5,151.313 174.313,154.375 170.938,156.688 165.938,155.438 162.313,156.25 160.375,157.688 156.563,161.125    152.75,165.5 150.813,166.188 149.375,166.688 147.438,166.063 146.25,163 146,161.125 146,157.063 146.25,155.063    147.125,151.125 148.313,148.438 151.125,141.813 153.313,139.438 155.375,134.75 156.5,134.375 159.375,135.625 162.75,134.188    166.063,130.125 167.25,128.813 167.563,127.625 165.375,125.25 165.625,124.313 168.25,123.938 170.938,121.75 172.313,117.875    172.125,116.438 172.313,111 170.563,107.813 171.063,104.688 174.625,103.688 174.813,100.875 176.563,99.813 180.438,101.875    182.688,102.063 183.938,101.688 187,100.125 192.375,100.25 196.063,101.563 202.875,99.25 204.313,99.625 210.375,103.375    209.625,105.938 208.5,106.813 205.5,106.563 205.5,108.938 207.125,110 213,112.563 213.875,113.313 215.75,115.938  "
       id="polygon36" /><polygon
       fill="none"
       stroke="#a2a2a287"
       stroke-width="1"
       stroke-linecap="round"
       stroke-linejoin="round"
       points="41.25,235.749    42.375,237.313 42.563,239.438 42.188,240.563 40.313,239.938 39.313,238.438 39.125,236.188 39.938,235.313  "
       id="polygon38" /><polygon
       fill="none"
       stroke="#a2a2a287"
       stroke-width="1"
       stroke-linecap="round"
       stroke-linejoin="round"
       points="33.188,220    35.25,220.25 37.563,223.374 39,230.938 38.75,233.688 37.188,233.688 31.688,220.938 32.688,220.188  "
       id="polygon40" /><polygon
       fill="none"
       stroke="#a2a2a287"
       stroke-width="1"
       stroke-linecap="round"
       stroke-linejoin="round"
       points="26.75,213.063    27.938,213.5 29.625,215.375 30.188,217.813 29.813,219.375 27.938,218.938 26.438,213.75  "
       id="polygon42" /><polyline
       fill="none"
       stroke="#a2a2a287"
       stroke-width="1"
       stroke-linecap="round"
       stroke-linejoin="round"
       points="28.563,186.438    30.188,187.375 31.875,189.625 34.563,193.938 35.875,198.688 36.5,203.625 37.563,206.75 36.875,213.5 37.188,216.938 35.063,220    34.75,218.625 31.875,209.75 32.75,207.063 33.188,204.125 33.188,201.5 32.688,198.688 31.875,196.063 30.813,193.688 29,191.25    27.125,189.063 27.125,187.125 28.125,186.688  "
       id="polyline44" /><polygon
       fill="none"
       stroke="#a2a2a287"
       stroke-width="1"
       stroke-linecap="round"
       stroke-linejoin="round"
       points="102.438,181.938    105.375,182.688 106.688,183 108.188,184.938 112.563,183.875 113.188,182.875 112.125,181.625 111.063,178 115.75,176.5    116,174.625 114.5,174.5 112.563,174.938 108.188,175.188 106.688,176.188 104.188,178.625  "
       id="polygon46" /><polygon
       fill="none"
       stroke="#a2a2a287"
       stroke-width="1"
       stroke-linecap="round"
       stroke-linejoin="round"
       points="128.375,104.688    130.5,105.5 130,108.938 128.938,111.938 125.625,111 124.563,113.313 122.688,112.813 123.125,105.75 124.563,105.5    126.75,105.563  "
       id="polygon48" /><polyline
       fill="none"
       stroke="#a2a2a287"
       stroke-width="1"
       stroke-linecap="round"
       stroke-linejoin="round"
       points="152.438,92.375    148.375,98.625 150.875,104.188 151.625,108.375 148.5,110 146.813,113 144.25,114.625 139.875,118.063 137.188,117.875    136.125,114.313 134.313,113.313 133.125,115.938 131.063,116.938 130.188,119.25 133.313,121 132.375,124.25 131.25,126    130.188,132.813 131.188,138.688 133.125,137.938 134.188,135.625 136.063,138.375 138.375,139 141.875,131.563 140.313,129.125    140.875,127.438 143,126.625 143.375,128.5 143,130.938 150.813,129.438 150.813,122.063 155.188,119.25 159.438,115.313    159.438,111.813 161.875,105.5 164,105.5 165.063,102.375 163.125,102.063 161.375,102.75 160.813,100.438 163.125,100.625    163.375,97.75 161.938,93.438 161.938,90.625 163.125,88.563 158.625,87.813 159.438,90.313 152.75,92.375  "
       id="polyline50" /><polyline
       fill="none"
       stroke="#a2a2a287"
       stroke-width="1"
       stroke-linecap="round"
       stroke-linejoin="round"
       points="319.438,272.124    323.25,270.249 325.875,272.624 333.125,277.249 338.25,279.813 342.813,280.938 347.188,283.063 348,285.438 351.75,288.874    358.063,292.124 362.375,295.438 364.25,300.499 363.688,302.249 367.125,298.688 369.875,294.563 377.313,284.624    380.313,280.624 382.563,276.313 384,271.499 385.938,268.063 390.375,259.874 392.625,253.874 392.188,243.874 386.188,243.874    383.125,240.688 379.438,246.874 377.188,250.749 375.188,251.249 372.438,250.124 370.375,251.874 367.875,252.374    359.625,248.624 356.938,248.624 353.75,249.188 352.063,248.188 353.313,245.999 358.063,245.624 363.125,242.063    369.563,245.063 371.875,244.563 376.375,242.563 380,239.188 382.75,237.563 385.75,237.749 391,233.688 396.063,224.749    397.375,221.563 406.625,217.25 407.875,214.688 409.813,216.188 414.063,213.75 417.063,215.813 422.875,215.813 428.625,220.188    430.5,220.188 429.188,206.813 424.813,202 424.75,194.5 423,187 421,184.938 421.5,180.25 420.375,178.375 421,173.625    420.5,168.688 419.438,166.063 421.313,164.25 421.375,161.563 423.063,162.563 425.75,166 426.5,167.875 429.125,167.875    429.563,165.75 432.375,166.625 428.25,153.813 424.25,143.125 418.625,130.938 413.813,121.625 408.75,113.063 403.5,104.188    397.688,95.563 386.875,82.375 379.438,74.5 373.688,68.938 367.75,63.563 361.813,58.188 361.75,58.5 360.688,59.438    359.375,59.438 355.813,56.125 353.063,54.563 349.625,51.375 347.813,47.563 344.063,45.125 342.5,45.875  "
       id="polyline52" /><polyline
       fill="none"
       stroke="#a2a2a287"
       stroke-width="1"
       stroke-linecap="round"
       stroke-linejoin="round"
       points="282.5,425.999    284.813,425.374 287.5,423.749 290.313,422.313 293.188,421.063 296.313,420.249 305,420.249 305.688,420.438 313.063,417.124    321.938,413.063 322.563,408.999 324.875,406.313 330.688,402.499 332.063,398.749 333.375,396.688 342.625,388.938    343.438,385.249 346.375,382.374 348.875,380.499 351.563,378.874 353.938,377.374 356.813,375.874 359.063,367.124    358.063,362.999 358.375,359.624 356.813,356.563 357.375,353.313 360.188,350.313 363.438,346.063 365.938,342.563    370.25,335.624 370.688,335.749 374.125,328.063 376,324.499 377.813,320.749 379.125,316.813 380.313,312.749 382.313,304.749    385.375,294.999 384.313,287.749 381.875,289.874 378.813,294.813 373.5,299.499 372.813,303.063 368.5,304.938 365.938,304.938    361.5,303.624 359.563,304.374 355.625,303.938 351.75,301.749 349.875,299.313 337.375,286.813 333.063,285.438 332.125,283.124    329.313,282.438 320.375,274.438 319.438,272.124  "
       id="polyline54" /><polyline
       fill="none"
       stroke="#a2a2a287"
       stroke-width="1"
       stroke-linecap="round"
       stroke-linejoin="round"
       points="204.313,275.999    202.063,281.188 200.688,282.313 196.063,287.624 195.625,290.499 191.563,293.749 190.438,295.499 187.25,296.249    183.938,298.124 181.5,301.499 178.813,303.063 175.438,307.063 167.563,316.249 167.875,317.249 171.188,318.374 171.188,321.688    170.375,325.063 169.125,329.438 167.875,333.749 167.438,335.313 167.563,341.438 168.688,346.124 170.063,348.124    177.813,357.688 178.563,359.624 185.063,362.313 193.813,367.124 195.063,368.499 198.25,371.438 200.063,371.624    201.625,369.563 204.313,368.499 216.5,366.938 220.188,368.499 222.75,366.313 229.625,365.063 231.75,363.938 238.875,362.999    246.563,364.563 251.813,369.313 253.688,369.563 255.688,368.499 260.188,368.313 264.563,373.874 262.688,378.624    261.938,383.563 259.688,386.438 263,388.938 270.563,396.938 272.813,401.874 272.438,405.249 268.75,409.938 268.313,414.063    270.125,416.874 282.5,425.999  "
       id="polyline56" /><polyline
       fill="none"
       stroke="#a2a2a287"
       stroke-width="1"
       stroke-linecap="round"
       stroke-linejoin="round"
       points="200.063,268.499    203.438,267.938 208.625,271.313 212.25,270.499 219.438,269.874 223.063,267.438 225.5,264.188 226.125,259.374 232.313,254.688    232.313,250.313 247.688,245.188 253.5,246.063 258.438,249.499 259.313,250.499 263.75,252.813 266.188,255.938 267.25,260.749    266.188,261.499 267.25,263.063 270.125,259.874 270.125,256.124 273.688,257.249 273.688,254.688 269.938,252.999    265.875,249.188 261.938,246.563 258.063,242.063 257.688,237.749 262.375,240.438 263.625,240.438 265.625,243.438    272.813,246.563 275.875,250.938 282.5,256.124 286,258.313 291.563,260.374 291.563,257.249 290.063,256.563 289.313,254.249    286.625,253.249 285.063,251.563 286,249.499 284.063,247.499 285.063,245.374 287.625,245.374 290.313,246.563 290.75,242.063    296.125,242.063 298.75,239.688 296.313,233.499 295.813,226.063 297.063,222.125 299.813,218.375 301.25,218.813 302.875,220.5    306.25,220.5 309.75,221 311.375,219.375 310.75,217.5 306.25,216.563 304.5,215.188 309.75,209 310.75,214.875 317.938,217.25    322.063,219.688 323.063,221.625 322.75,223.813 320.188,225.249 316.438,226.499 312.125,228.813 309.25,231.563 304.5,237.124    299.563,240.688 298.125,244.374 297.5,247.999 298.313,250.749 300.688,251.124 302.313,252.813 305.188,251.624 309.688,251.999    316.625,249.374 319.313,248.499 321.75,246.563 323.688,258.563 322.063,263.563 320.438,265.124 314.625,265.374    301.375,270.124 291.063,272.374 289.875,272.999 284.938,277.313 285.75,280.188 283.5,281.688 280.625,281.438 278.75,282.063    271.375,281.188 270.563,279.499 259.313,276.188 254.875,274.438 254.313,272.688 255.813,271.124 255,265.999 253.125,265.438    237,267.438 233.938,268.063 230.938,268.499 226.375,268.938 226.25,270.124 215.188,274.124 210.563,274.938 208,272.688    204.313,275.999  "
       id="polyline58" /><polyline
       fill="none"
       stroke="#a2a2a287"
       stroke-width="1"
       stroke-linecap="round"
       stroke-linejoin="round"
       points="281.625,120.688    282.938,121.875 288.375,124.75 289.063,125.563 287.125,127.438 285.688,131.313 284.625,133.438 284.188,136.313 284.625,139.75    284.063,143.063 282.938,143.688 282.188,142.75 280.438,140.063 277.5,141.938 277.5,143.25 279.438,144.313 280.438,144.938    280.125,155.063 277.313,155.375 277.813,158.813 274.813,158.813 273.813,157.688 272.563,155 271.688,155 268.875,156.375    265,155.625 264.25,154.563 264,153.438 265.5,152.063 275.125,150.688 275.688,149.688 275.313,146.75 269.688,142.813    266.875,142.25 263.5,143.5 255.563,140.625 251.313,140.125 250.25,141 242.813,147.813 240.188,151.063 240.5,158.813    239.5,163.25 238.25,167.375 236.563,171.5 235.813,173.563 233.125,176.5 231.5,183.25 231.5,185.188 232.313,188    232.313,191.563 233.375,193.125 235.938,194.25 237.75,193.688 238.625,191.438 240.313,188.125 242,188.938 242.813,190.75    245.75,193.438 246.063,195.813 247.063,197.688 248.938,197 250.375,196.688 251.813,195.813 252.813,194.5 252.25,190.75    253.125,188.75 253.438,186.125 253.938,183.875 253.188,181.063 252.125,179.875 250.188,177.375 249.438,174.625    250.188,169.438 251.813,164.938 251.813,158.313 253.125,157 255.375,158.313 256.625,161.563 256.625,163.813 255,169.5    255.938,175.438 258.813,179.25 263.125,177.875 267.25,175.75 266.875,179.75 262.5,181.5 260.5,185.25 265.625,185.813    263.5,190.938 263.75,196.375 257.688,200.125 250.188,203.625 245.5,204.125 245.125,195.813 241.375,194.313 241.188,206    232.625,215.938 230.938,220.063 225.375,223.499 215.188,226.249 219.438,231.813 221.75,235.563 222.063,244.188    213.813,244.749 211.938,244.999 207.938,244.188 201.625,247.249 202.563,251.874 200.938,255.374 200.938,259.124    199.875,265.124 200.063,268.499  "
       id="polyline60" /><polyline
       fill="none"
       stroke="#a2a2a287"
       stroke-width="1"
       stroke-linecap="round"
       stroke-linejoin="round"
       points="342.5,45.875    328.313,40 313.375,34.5 308.188,34.375 310.625,30.375 307.188,29.375 300.75,29.125 297.875,28.375 295.813,28.813    297.875,33.25 295.813,36.25 294.563,36.25 292,35.125 288.375,34.75 281.625,31.813 272,28.438 268.75,26.313 262.375,25.313    258.5,24.688 256.188,25.25 254.688,26.125 247.875,25.938 246.813,25.688 249.75,23.188 253.813,21.813 261.313,21.188    263.75,19.75 264,18.5 263,18.063 251.563,18.125 247.563,19.563 244.938,22.5 237.125,21.5 227.188,20.938 218.5,20.625    219.438,22.875 217.875,24.938 215.438,25.688 214.438,26.75 207.938,26.75 204.813,25.688 202.813,27.375 206.938,32 212,31.875    219.75,35.625 240.875,39.688 248.375,44.313 251.563,45.063 253.5,47.188 255.688,49.438 261.313,49.438 263.75,50.938    266.125,56.063 268.688,58.188 269.688,59.813 269.313,61.938 268.313,65.313 269.125,68.688 268.375,69.813 265.188,70.813    264.75,72.438 267.75,76.75 272.813,78.625 273.25,80.813 272.875,82.688 274.313,83.875 275.313,84.125 276.938,84.563    277.125,85.875 276.938,86.75 280.313,90.625 280.313,93.313 285.375,94.938 285.938,95.938 285.375,97.375 283.5,98.438    280.625,98.438 283.188,103.563 285.938,106.063 292.688,108.438 293.75,108.438 294.063,106.063 295.813,106.563 297.688,109.938    299.438,112.25 299.75,115.25 299.438,116.25 298.125,115.875 295.813,113.313 290.688,111.563 287.625,110.688 279.438,105.5    278.563,107.563 285.375,113.938 289.313,117.125 288.375,118.188 286.25,119.75 281.625,120.688  "
       id="polyline62" /><polygon
       fill="none"
       stroke="#a2a2a287"
       stroke-width="1"
       stroke-linecap="round"
       stroke-linejoin="round"
       points="313.063,27.813    319.563,30.625 315.188,32.875 312.938,29.813 313.063,28.438  "
       id="polygon64" /><polyline
       fill="none"
       stroke="#a2a2a287"
       stroke-width="1"
       stroke-linecap="round"
       stroke-linejoin="round"
       points="44.125,173.938    49.125,173.938 50.813,173.188 52.25,173.563 56,173.313 58.125,172.313 59.188,170.188 64.313,169.25 68.375,170.188    71.688,174.125 74.438,175.438 75.438,172 77.188,171.688 80.625,172.438 83.25,172.438 88.625,173.563 89.5,175.188 86.313,177    85.375,178.063 83.625,178.625 84.5,180.5 85.625,180.563 88.438,178.5 92.375,178 94.375,178.625 97.625,179 97.625,177.375    95.5,176 95.688,173.313 92.938,172 92.563,170.25 93.5,168.625 96,167.375 97.313,165.75 96.688,164.25 95,161 95.125,159.875    97.313,160.75 100.188,164.875 99.563,166.188 100.25,167.375 102.625,167.625 105.375,171.063 106.688,171.938 110.438,171.938    117.938,171.625 118.938,170.875 120.188,164.188 119.063,159.375 118.313,158 124.25,145.938 125,144.625 127.375,143.25    128,140.625 127.313,140.125 124.875,141.25 122.063,142.5 121.063,142.125 120.75,139.813 121.063,138.688 122.5,137.938    125.625,135.625 126.75,131.688 126.75,127.875 127.5,126.875 127.5,125 125.313,123.688 124.563,120.625 123,119.75    115.188,123.313 112,124.75 109.625,125.25 107.75,129.063 103.688,130.938 99.25,131.688 98.063,134.375 96.938,135.313    94.25,136.938 93.188,136.25 93.188,132.563 94.563,129.438 96.688,127.438 99.25,126.875 99.938,125 99.563,121.813    101.188,119.125 105.688,114.438 107.125,113.313 106.938,109.063 106.688,107.875 107.25,106.063 109.188,105.5 110.188,104.313    109.625,101.688 117.25,98.688 120.125,99.563 124.875,99.625 126.125,101.188 127.375,102.063 131.563,102.938 135.938,109.688    137.188,110.563 142.5,108.438 146.25,104.688 146.438,103.375 145.5,101.563 142.188,103.063 140.563,103.063 140.188,101.688    142.188,100.25 142.688,98.063 146.625,94.25 148.063,91.813 151.125,91.188 153,88.063 146.25,87.063 144.25,86.125 139.375,86.5    138.438,84.125 142.813,82.563 142.813,80.813 142.125,79 137.188,77.438 141,75.5 140.5,71.813 140.875,68.875 144.25,68.938    144.25,73.625 146.25,76.375 146,80.875 149.063,82.375 151.125,80.063 153.5,78.813  "
       id="polyline66" /><polyline
       fill="none"
       stroke="#a2a2a287"
       stroke-width="1"
       stroke-linecap="round"
       stroke-linejoin="round"
       points="80.313,378.313    81.938,378.874 83.25,378.624 85.063,378.874 86.625,379.313 88.438,379.874 90.125,380.499 93.5,381.749 96,382.999    99.563,382.999 101.375,378.688 102.875,378.313 104.5,376.938 110.188,370.188 109.188,366.938 102.875,362.999 100.75,359.249    91.063,350.188 90.813,349.124 88.25,348.813 85.125,348.313 82.5,345.688 81.688,342.249 74,335.749 70.938,335.624    68.438,330.438 66.313,327.938 68.688,324.624 65.625,314.624 62.813,309.249 57.813,302.688 52.75,299.249 51.188,291.438    48.938,281.438 50.625,277.438 49.125,276.749 48.438,274.938 47.438,274.563 44.375,268.874 38.125,266.624 36.875,262.063    35.25,260.688 33.063,251.249 31.688,249.249 31.688,246.063 27.125,237.938 23.063,237.313 21.875,233.688 21.688,227.938    17.375,225.624 18.25,214.625 17.938,210.625 20.75,206.125 22.938,198.563 22.75,191.063 19.625,189.375 21.063,185.813    29.625,177.375 27.688,171.313 24.375,171.813 23.063,171.438 23.25,163 24.625,157.25 25.938,153.625 27.688,150.688    29.938,147.938 32.188,142.813 33.188,141.625 35.063,141.313 38.313,142.25 39.313,144 38.813,147.063 39.313,152.375    38.813,154.563 38.625,157.813 40.938,159.125 42.125,166.813 41.25,169.5 37.813,173.563 36.875,175.438 35.625,179.875    33.75,184 33.75,186.813 35.063,187.75 37.5,186.5 38,185.25 39.375,180.813 42.563,175.688 44.125,173.938  "
       id="polyline68" /><polyline
       fill="none"
       stroke="#a2a2a287"
       stroke-width="1"
       stroke-linecap="round"
       stroke-linejoin="round"
       points="67.875,76.5    58.563,86.438 49.125,99.25 40.688,112.438 33.438,125.25 27.438,137.875 23.563,147.813 20,158 17.375,167.875 15.25,177.625    12.75,192.688 12,199.063 16.125,197.438 17.938,197.313 18.438,199.5 16.813,206.25 13.875,207.75 15.25,212.063 14.188,215.563    14.938,229.749 16.813,229.938 18.25,230.563 19,238.063 16.813,242.938 12.063,244.563 12.938,250.313 15.25,264.313    19.5,280.624 21.875,288.563 27.938,304.063 32.688,314.624 39.063,326.374 46,338.188 52.5,347.188 62.813,360.374    74.188,372.563 80.313,378.313  "
       id="polyline70" /><polyline
       fill="none"
       stroke="#a2a2a287"
       stroke-width="1"
       stroke-linecap="round"
       stroke-linejoin="round"
       points="153.5,78.813    158.75,79.25 154.563,81.938 155.938,84.813 160.5,84.563 164,85.563 164.438,83.563 162.313,80.5 162.875,78.5 164.438,77.563    161.875,75.438 163.125,73.688 165.125,73 169.625,73 168.563,76.75 168.813,77.625 172.313,76.75 174.063,76.75 174.063,78.813    170.563,81.125 173.438,85.563 173.563,87.813 172.125,88.063 169.375,86.188 166.938,88.313 164.125,89.688 166.375,95.813    167.813,97.375 175.625,95.813 181.5,97.063 183.125,98.438 184.438,98.625 185.938,97.938 190.938,95.813 195.938,97 198.938,95    199.25,93.688 196.938,90.625 195.188,89.313 190.313,88.063 185.688,84.125 183.563,84.125 179.75,84.75 176.313,84.813    175.688,83.5 178.563,82.125 178.563,79.875 176.875,78.625 176.875,76.75 179.188,75.563 179,72.125 181.5,71.375 184.438,73.5    187.063,73.25 186.625,72.438 183.25,67.938 182,67.875 180.063,68.5 178.5,70.063 177.438,70.813 174.625,66.938 172.563,65.688    166.813,63.813 163.813,62.688 161.875,64.25 160.5,65.813 161.375,67.313 160.875,68.688 157.813,69.438 156.5,71.375    155.375,70.563 155.188,69.438 152.75,66.938 152.875,66.063 154.563,65.688 155.938,63.563 160,60.938 162.875,59.813    163.5,55.063 161.938,53.438 157.5,52.063 161.875,52.875 167.563,49.875 175.563,47.125 184.563,44.438 195.063,43.375    195.625,42 202.813,35.875 202.063,34.375 200.438,33.375 199.375,34 200.313,32.625 198.438,30.938 192.938,29.375 191.563,30.25    191.313,29 194.375,28.188 195.438,26.125 194.375,22.875 189.75,23.938 183.25,23.5 181.25,24.875 179.75,24.875 178.188,23.5    180,21.438 183.563,20.625 184.438,19.063 176.563,20.313 171.25,26.813 170.25,29.5 168.25,28.813 168.25,25.25 166.625,25.563    163.5,28.125 161.688,30.25 160.25,30.375 160.5,33.563 152.063,37.875 149.563,37.5 143.5,41.625 139.875,40.563 138.063,41.688    136.375,44.375 118.25,50.938 115.188,49.438 108.313,54.375 106.813,56.688 96.688,59.25 87.313,63.188 83.25,67.688    78.188,70.063 72.563,75.125 70.438,76.313 67.875,76.5  "
       id="polyline72" /><polyline
       fill="none"
       stroke="#a2a2a287"
       stroke-width="1"
       stroke-linecap="round"
       stroke-linejoin="round"
       points="230.938,435.688    229.938,384.249 223,384.374 211.438,384.249 199.75,383.563 188.188,382.124 176.688,380.499 165.375,378.124 154.313,375.499    143.188,372.249 129.563,367.313 125.313,365.499 125.938,373.249 128.313,386.438 130.438,395.124 134.063,405.188    139.375,416.938  "
       id="polyline74" /><polyline
       fill="none"
       stroke="#a2a2a287"
       stroke-width="1"
       stroke-linecap="round"
       stroke-linejoin="round"
       points="48.625,275.188    52.688,261.813 58.125,247.374 63.5,235.124 67.75,226.563 77.188,237.874 86.125,246.874 101,258.813 114.625,267.749    127.5,274.563 136.563,278.313 142.188,259.124 149.313,237.313 159.375,209.625 172.313,176.375 157.125,170.063 150.563,166.188     "
       id="polyline76" /><polyline
       fill="none"
       stroke="#a2a2a287"
       stroke-width="1"
       stroke-linecap="round"
       stroke-linejoin="round"
       points="119.063,159.375    125.313,153.813 129.188,150.75 124.563,145.938  "
       id="polyline78" /><polyline
       fill="none"
       stroke="#a2a2a287"
       stroke-width="1"
       stroke-linecap="round"
       stroke-linejoin="round"
       points="27.688,171.188    32.688,164.25 38.75,157.5  "
       id="polyline80" /><polyline
       fill="none"
       stroke="#a2a2a287"
       stroke-width="1"
       stroke-linecap="round"
       stroke-linejoin="round"
       points="106.625,171.813    97.938,181.813 90.688,191.25 82.688,202.125 75.125,213.688 67.625,226.499 62.813,219.875 57.313,210.375 52.5,200.313    50.5,195.25 46.938,184.25 44.125,173.938  "
       id="polyline82" /><polyline
       fill="none"
       stroke="#a2a2a287"
       stroke-width="1"
       stroke-linecap="round"
       stroke-linejoin="round"
       points="126.125,101.188    121.063,102.75 115.813,104.938 106.938,109.063  "
       id="polyline84" /><polyline
       fill="none"
       stroke="#a2a2a287"
       stroke-width="1"
       stroke-linecap="round"
       stroke-linejoin="round"
       points="171.938,116.25    161.875,123.5 155.188,128.688 148.125,134.438 135.75,144.938 129.188,150.75 132.938,154.375 136.813,157.625 143.063,162    146.625,164.188  "
       id="polyline86" /><polyline
       fill="none"
       stroke="#a2a2a287"
       stroke-width="1"
       stroke-linecap="round"
       stroke-linejoin="round"
       points="191.625,293.749    172.125,289.499 152.75,283.999 136.75,278.374 133.938,288.874 130.75,303.124 128.938,313.499 126.813,328.188 125.5,345.813    125.313,365.499 114.438,360.999 103.063,355.499 92,349.749 82.063,344.124  "
       id="polyline88" /><polyline
       fill="none"
       stroke="#a2a2a287"
       stroke-width="1"
       stroke-linecap="round"
       stroke-linejoin="round"
       points="262.125,382.438    251,382.999 243.313,383.749 235.563,383.999 229.938,384.249 229.625,365.063  "
       id="polyline90" /><line
       fill="none"
       stroke="#a2a2a287"
       stroke-width="1"
       stroke-linecap="round"
       stroke-linejoin="round"
       x1="225.375"
       y1="264.749"
       x2="225.375"
       y2="270.374"
       id="line92" /><line
       fill="none"
       stroke="#a2a2a287"
       stroke-width="1"
       stroke-linecap="round"
       stroke-linejoin="round"
       x1="215.75"
       y1="115.938"
       x2="221.813"
       y2="116.5"
       id="line94" /><polyline
       fill="none"
       stroke="#a2a2a287"
       stroke-width="1"
       stroke-linecap="round"
       stroke-linejoin="round"
       points="211.625,115.25    207.75,114.438 204.813,113.688 201.938,112.563 199.125,111 196.688,109.438 194.063,107.563 191.75,105.563 189.75,103.375    187.938,101.063 187.25,100  "
       id="polyline96" /><polyline
       fill="none"
       stroke="#a2a2a287"
       stroke-width="1"
       stroke-linecap="round"
       stroke-linejoin="round"
       points="224.438,208.5    223.813,183.5 216.313,183.25 210.125,182.875 204,182.375 198,181.75 191.938,180.813 186.063,179.75 179.313,178.25    172.313,176.375 174.438,171.688 176.063,168.188 178.375,163.188 181,157.625 184.438,149.688  "
       id="polyline98" /><line
       fill="none"
       stroke="#a2a2a287"
       stroke-width="1"
       stroke-linecap="round"
       stroke-linejoin="round"
       x1="225.125"
       y1="223.563"
       x2="225.125"
       y2="219.688"
       id="line100" /><line
       fill="none"
       stroke="#a2a2a287"
       stroke-width="1"
       stroke-linecap="round"
       stroke-linejoin="round"
       x1="309.688"
       y1="251.999"
       x2="314.563"
       y2="265.499"
       id="line102" /><line
       fill="none"
       stroke="#a2a2a287"
       stroke-width="1"
       stroke-linecap="round"
       stroke-linejoin="round"
       x1="253.188"
       y1="180.5"
       x2="258.813"
       y2="179.188"
       id="line104" /><line
       fill="none"
       stroke="#a2a2a287"
       stroke-width="1"
       stroke-linecap="round"
       stroke-linejoin="round"
       x1="221.813"
       y1="116.5"
       x2="226.563"
       y2="116.25"
       id="line106" /><polyline
       fill="none"
       stroke="#a2a2a287"
       stroke-width="1"
       stroke-linecap="round"
       stroke-linejoin="round"
       points="223.625,183.25    222.063,122.75 221.813,116.5  "
       id="polyline108" /><polyline
       fill="none"
       stroke="#a2a2a287"
       stroke-width="1"
       stroke-linecap="round"
       stroke-linejoin="round"
       points="255.563,140.625    248.125,127.438 239.313,113.188 243.625,111.188 247.063,108.688 250,106.063 253,102.5  "
       id="polyline110" /><polyline
       fill="none"
       stroke="#a2a2a287"
       stroke-width="1"
       stroke-linecap="round"
       stroke-linejoin="round"
       points="266.625,110.813    261,107.375 253,102.5 255.313,98.938 256.813,94.313 257.688,89.313 257.688,84.438 267.375,85.438 277.125,87.063  "
       id="polyline112" /><polyline
       fill="none"
       stroke="#a2a2a287"
       stroke-width="1"
       stroke-linecap="round"
       stroke-linejoin="round"
       points="297.063,222.125    298.75,225.624 301.438,231.999 303.75,237.813  "
       id="polyline114" /><polyline
       fill="none"
       stroke="#a2a2a287"
       stroke-width="1"
       stroke-linecap="round"
       stroke-linejoin="round"
       points="187,73.25    190.313,69.25 194.063,66.063 198.813,63.125 203.438,61.063 208.25,59.5 213.875,58.5 219.5,57.875 219.313,35.563  "
       id="polyline116" /><polyline
       fill="none"
       stroke="#a2a2a287"
       stroke-width="1"
       stroke-linecap="round"
       stroke-linejoin="round"
       points="183.563,84.125    183.938,80.5 185.375,76.375 187.063,73.25  "
       id="polyline118" /><polyline
       fill="none"
       stroke="#a2a2a287"
       stroke-width="1"
       stroke-linecap="round"
       stroke-linejoin="round"
       points="183.563,84.125    183.5,87.313 183.813,91.438 184.563,94.5 185.938,97.938  "
       id="polyline120" /><polyline
       fill="none"
       stroke="#a2a2a287"
       stroke-width="1"
       stroke-linecap="round"
       stroke-linejoin="round"
       points="186.063,44.625    191.438,48.5 198.25,54.75 203.438,60.938  "
       id="polyline122" /><polyline
       fill="none"
       stroke="#a2a2a287"
       stroke-width="1"
       stroke-linecap="round"
       stroke-linejoin="round"
       points="160.5,30.625    152.25,27.813 142.688,24.75  "
       id="polyline124" /><polyline
       fill="none"
       stroke="#a2a2a287"
       stroke-width="1"
       stroke-linecap="round"
       stroke-linejoin="round"
       points="233.125,59.5    234.688,57.688 238.063,54.063 241.75,50.438 245.5,47.188 248.5,44.313  "
       id="polyline126" /><polyline
       fill="none"
       stroke="#a2a2a287"
       stroke-width="1"
       stroke-linecap="round"
       stroke-linejoin="round"
       points="219.5,57.875    223,57.875 228.563,58.5 233.125,59.5  "
       id="polyline128" /><polyline
       fill="none"
       stroke="#a2a2a287"
       stroke-width="1"
       stroke-linecap="round"
       stroke-linejoin="round"
       points="292.563,20.188    281.313,24.563 273.5,28 272,28.438  "
       id="polyline130" /><polyline
       fill="none"
       stroke="#a2a2a287"
       stroke-width="1"
       stroke-linecap="round"
       stroke-linejoin="round"
       points="250.313,69.188    255.813,67.625 262.125,66.063 268.688,64.688  "
       id="polyline132" /><polyline
       fill="none"
       stroke="#a2a2a287"
       stroke-width="1"
       stroke-linecap="round"
       stroke-linejoin="round"
       points="256.625,79.75    255.813,78 253.938,74.438 251.813,71.063 249.438,68.688 247.063,66.563 244.375,64.563 241.688,62.938 238.688,61.688    233.125,59.5  "
       id="polyline134" /><polyline
       fill="none"
       stroke="#a2a2a287"
       stroke-width="1"
       stroke-linecap="round"
       stroke-linejoin="round"
       points="439.75,213.063    437.875,228.188 435.438,239.938 432.063,251.374 428.625,260.749 425.563,267.688 421.813,275.438 417.563,283.063    409.875,295.188 408.125,281.999 405.125,269.624 401.438,257.999 395.875,244.563 390.75,234.188  "
       id="polyline136" /><polyline
       fill="none"
       stroke="#a2a2a287"
       stroke-width="1"
       stroke-linecap="round"
       stroke-linejoin="round"
       points="421.313,164.25    425.563,171.188 432.063,183.688 435.5,191.438 438.5,199.813  "
       id="polyline138" /><polyline
       fill="none"
       stroke="#a2a2a287"
       stroke-width="1"
       stroke-linecap="round"
       stroke-linejoin="round"
       points="405,341.124    407.625,329.624 409.188,320.374 409.875,310.563 410.125,300.624 409.875,295.188 405.125,302.499 399.25,309.874    393.875,315.938 386.875,322.938 379.688,328.999 370.688,335.749  "
       id="polyline140" /><line
       fill="none"
       stroke="#a2a2a287"
       stroke-width="1"
       stroke-linecap="round"
       stroke-linejoin="round"
       x1="146.875"
       y1="94.313"
       x2="152.438"
       y2="92.375"
       id="line142" /><line
       fill="none"
       stroke="#a2a2a287"
       stroke-width="1"
       stroke-linecap="round"
       stroke-linejoin="round"
       x1="257.688"
       y1="84.438"
       x2="256.625"
       y2="79.938"
       id="line144" /><line
       fill="none"
       stroke="#a2a2a287"
       stroke-width="1"
       stroke-linecap="round"
       stroke-linejoin="round"
       x1="187.063"
       y1="100"
       x2="185.938"
       y2="98"
       id="line146" /><line
       fill="none"
       stroke="#a2a2a287"
       stroke-width="1"
       stroke-linecap="round"
       stroke-linejoin="round"
       x1="211.688"
       y1="115.25"
       x2="215.813"
       y2="115.938"
       id="line148" /><line
       fill="none"
       stroke="#a2a2a287"
       stroke-width="1"
       stroke-linecap="round"
       stroke-linejoin="round"
       x1="237.75"
       y1="113.938"
       x2="239.313"
       y2="113.188"
       id="line150" /><polyline
       fill="none"
       stroke="#a2a2a287"
       stroke-width="1"
       stroke-linecap="round"
       stroke-linejoin="round"
       points="249.75,23.188    253.125,23.688 258.063,24.563  "
       id="polyline152" /><polyline
       fill="none"
       stroke="#a2a2a287"
       stroke-width="1"
       stroke-linecap="round"
       stroke-linejoin="round"
       points="218.5,9.438    218.563,20.625 209.875,21 204.188,21.813 198.625,22.5 194.438,23.063  "
       id="polyline154" /><line
       fill="none"
       stroke="#a2a2a287"
       stroke-width="1"
       stroke-linecap="round"
       stroke-linejoin="round"
       x1="162.75"
       y1="89.688"
       x2="166.5"
       y2="88.563"
       id="line156" /><line
       fill="none"
       stroke="#a2a2a287"
       stroke-width="1"
       stroke-linecap="round"
       stroke-linejoin="round"
       x1="223.688"
       y1="183.5"
       x2="231.438"
       y2="183.25"
       id="line158" /></g></svg>