<svg width="22" height="16" xmlns="http://www.w3.org/2000/svg">

 <metadata id="metadata7">image/svg+xml</metadata>
 <g>
  <title>background</title>
  <rect fill="none" id="canvas_background" height="18" width="24" y="-1" x="-1"/>
 </g>
 <g>
  <title>Layer 1</title>
  <g stroke="null" id="layer1">
   <path stroke-width="0.6" stroke="#9b9b9b" fill="#9b9b9b" fill-rule="nonzero" id="path3070" d="m4.93236,1.33587c-2.6636,0.41147 -4.4889,2.90376 -4.07743,5.56736c0.41148,2.6636 2.90395,4.49006 5.56754,4.07858c2.6636,-0.41147 4.48988,-2.90509 4.07841,-5.56869c-0.41148,-2.6636 -2.90492,-4.48873 -5.56852,-4.07725zm0.08412,0.54452c2.36262,-0.36498 4.57374,1.2544 4.93872,3.61702c0.36499,2.36263 -1.25439,4.57375 -3.61702,4.93873c-2.36263,0.36498 -4.57375,-1.2544 -4.93873,-3.61702c-0.36498,-2.36263 1.2544,-4.57375 3.61703,-4.93873z"/>
   <path stroke="null" fill="#9b9b9b" fill-rule="nonzero" id="rect3075" d="m14.52994,13.25994c-0.2607,-0.74744 -2.06994,-1.34771 -4.23384,-3.83112c-0.62882,-0.80444 -0.54569,-0.73838 -1.2209,-0.02232c-0.7874,0.71619 -0.71323,0.75704 0.01168,1.24756c2.33661,1.58351 3.4557,3.46966 4.33456,3.75597c0.87885,0.2863 1.3692,-0.40264 1.1085,-1.15009z"/>
  </g>
 </g>
</svg>